<svg width="240" height="52" viewBox="0 0 240 52" fill="none" xmlns="http://www.w3.org/2000/svg">
<path d="M193.614 38.2539C192.335 36.7621 191.695 34.9506 191.695 32.7129C191.695 30.4752 192.335 28.6638 193.614 27.172C194.892 25.6802 196.597 24.9343 198.728 24.9343C200.859 24.9343 202.564 25.6802 203.843 27.172C205.122 28.6638 205.761 30.4752 205.761 32.7129C205.761 34.9506 205.122 36.7621 203.843 38.2539C202.564 39.7457 200.859 40.4916 198.728 40.4916C196.597 40.4916 194.892 39.7457 193.614 38.2539ZM182.105 42.303C183.704 45.18 185.941 47.4177 188.818 49.1226C191.695 50.8276 194.999 51.68 198.728 51.68C202.564 51.68 205.868 50.8276 208.638 49.1226C211.515 47.4177 213.753 45.18 215.245 42.303C216.843 39.426 217.589 36.2293 217.589 32.7129C217.589 29.1965 216.843 25.9998 215.245 23.1228C213.646 20.2458 211.408 18.0081 208.638 16.3032C205.761 14.5983 202.458 13.7458 198.728 13.7458C194.999 13.7458 191.695 14.5983 188.818 16.3032C185.941 18.0081 183.704 20.2458 182.105 23.1228C180.507 25.9998 179.761 29.1965 179.761 32.7129C179.655 36.2293 180.507 39.426 182.105 42.303ZM151.204 50.5079V31.5408C151.204 30.049 151.63 28.6638 152.483 27.2785C153.335 25.9998 154.827 25.3605 157.171 25.3605C158.769 25.3605 160.048 25.8933 160.794 26.9588C161.647 28.0244 162.073 29.5162 162.073 31.4342V50.5079H174.86V28.131C174.86 24.8277 174.22 22.0572 173.048 20.0327C171.876 18.0081 170.278 16.4097 168.253 15.4507C166.228 14.4917 163.991 14.0655 161.54 14.0655C160.688 14.0655 159.622 14.172 158.343 14.3852C157.065 14.5983 155.786 15.0245 154.507 15.5573C153.229 16.1966 152.163 17.0491 151.204 18.2212V0.106557H138.417V50.5079H151.204ZM108.901 10.6557H115.188C117.106 10.6557 118.598 11.1885 119.663 12.3606C120.622 13.5327 121.155 15.0245 121.155 16.9425C121.155 18.754 120.622 20.2458 119.557 21.4179C118.491 22.59 117.106 23.1228 115.294 23.1228H108.901V10.6557ZM108.901 50.5079V33.6719H116.786C120.196 33.6719 123.286 32.926 125.843 31.5408C128.507 30.1556 130.532 28.2375 132.024 25.6802C133.516 23.1228 134.261 20.1392 134.261 16.7294C134.261 11.295 132.663 7.1393 129.36 4.26227C126.057 1.38524 121.794 0 116.36 0H95.901V50.5079H108.901ZM55.8357 48.1636C58.2865 50.4013 61.3767 51.4669 64.9996 51.4669C65.852 51.4669 66.9176 51.3603 68.1963 51.0407C69.475 50.721 70.7536 50.2948 72.0323 49.6554C73.311 49.0161 74.3766 48.0571 75.3356 46.885L75.7618 50.5079H88.1224V14.9179H75.3356V33.9916C75.3356 35.4834 74.9094 36.8686 74.1635 38.2539C73.4176 39.5325 72.0323 40.1719 70.0078 40.1719C68.0897 40.1719 66.8111 39.6391 66.0652 38.5735C65.3193 37.508 64.9996 36.1227 64.9996 34.4178V14.9179H52.2128V37.4014C52.2128 42.4096 53.3849 46.0325 55.8357 48.1636ZM13.4261 11.7212H18.8605C23.549 11.7212 27.0654 12.9999 29.3031 15.4507C31.5408 17.9015 32.6063 21.2048 32.6063 25.2539C32.6063 29.1965 31.4342 32.4998 28.9834 34.9506C26.5326 37.4014 23.2294 38.6801 18.8605 38.6801H13.4261V11.7212ZM19.2868 50.5079C24.4015 50.5079 29.09 49.5489 33.1391 47.7374C37.2948 45.9259 40.4915 43.1555 42.8358 39.426C45.18 35.6965 46.3522 31.1146 46.3522 25.5736C46.3522 19.713 45.18 14.8114 42.8358 11.0819C40.4915 7.35241 37.2948 4.58194 33.1391 2.77047C29.09 0.95901 24.4015 0.106557 19.2868 0.106557H0V50.5079H19.2868Z" fill="white"/>
<path d="M239.752 33.2456H222.383V50.5078H239.752V33.2456Z" fill="white"/>
</svg>
